<svg xmlns="http://www.w3.org/2000/svg" viewBox="0 0 1920 3630"><defs><style>.cls-1{opacity:0.8;}.cls-2{fill:#fff;}</style></defs><title>main-bg3</title><g id="Layer_1" data-name="Layer 1"><polygon class="cls-1" points="496.24 1562.34 484.34 1593.79 508.14 1593.79 496.24 1562.34"/><polygon class="cls-1" points="467.49 1759.79 491.29 1759.79 479.39 1728.34 467.49 1759.79"/><path class="cls-1" d="M610.64,654.87a27.88,27.88,0,0,0-19.8-47.77H570.77V663h20.07A26.91,26.91,0,0,0,610.64,654.87Z" transform="translate(0 1273)"/><path class="cls-1" d="M458.89,663h9.56a28,28,0,0,0,28.05-28,27.71,27.71,0,0,0-28.05-28h-9.56a28,28,0,1,0,0,55.94Z" transform="translate(0 1273)"/><path class="cls-1" d="M609.25,446.22H588v17.2h21.28a8.6,8.6,0,0,0,0-17.2Z" transform="translate(0 1273)"/><path class="cls-1" d="M626.1,280.22H604.82v17.2H626.1a8.6,8.6,0,0,0,0-17.2Z" transform="translate(0 1273)"/><path class="cls-1" d="M0-1273V2357H1920V-1273ZM875.84,697.35l.43.7H832L815,670.68l-17,27.37H753.7l.44-.7,38.74-62.28-38.74-62.2-.44-.7H798l17,27.37L832,572.17h44.3l-.43.7-38.74,62.2ZM749.37,617.61v35H693.16V663h56.21v35H658.15V572.17h91.22V607.1H693.16v10.51Zm-8.17-94.94q-8.85,9.38-21.1,9.38H608.73L588,509.55v22.5H553V406.17h59.42A46.88,46.88,0,0,1,658.77,453,46.18,46.18,0,0,1,651,478.8a57,57,0,0,1-20,18.24h79.05l-40.57-42.31c-3.74-4.51-5.56-10.25-5.56-17.11a31,31,0,0,1,8.69-22.06,27.76,27.76,0,0,1,21.1-9.39h54.47V441.1H703.76c.26.34,13.9,14.5,40.75,42.47a29.9,29.9,0,0,1,5.47,17A31.45,31.45,0,0,1,741.2,522.67ZM322.86,654.87A26.93,26.93,0,0,0,342.67,663h48.9v35h-48.9q-26.19,0-44.57-18.42t-18.41-44.56a60.65,60.65,0,0,1,18.41-44.48q18.38-18.37,44.57-18.42h48.9V607.1h-48.9a27.95,27.95,0,0,0-19.81,47.77Zm37.88-122.82-6.35-46.91-11.46,46.91h-34.4L279.69,406.17H317.3l10.6,46.39,10.68-46.39h30.93l10.6,46.39,10.68-46.39h39.35L399.48,532.05Zm-74.8-243.32c-3.73-4.51-5.56-10.25-5.56-17.11a31,31,0,0,1,8.69-22.06,27.78,27.78,0,0,1,21.11-9.39H450.47V275.1H418.16v90.95h-35V275.1h-63c.26.34,13.9,14.5,40.74,42.47a29.82,29.82,0,0,1,5.47,17,31.44,31.44,0,0,1-8.77,22.07q-8.87,9.38-21.11,9.38H279.69V331h46.82Zm189.19-48.56h42.22l48.13,125.88H525.26l-4.78-12.43H471.92l-4.69,12.43h-42Zm-60.8,350.42q18.38-18.37,44.56-18.42h9.56q26.19,0,44.56,18.42a60.66,60.66,0,0,1,18.42,44.48q0,26.19-18.42,44.56t-44.56,18.42h-9.56q-26.19,0-44.56-18.42t-18.42-44.56A60.66,60.66,0,0,1,414.33,590.59Zm94.08-58.54-4.78-12.43H455.07l-4.69,12.43h-42l49.86-125.88H500.5l48.13,125.88Zm27.35,40.12h55.08a63,63,0,0,1,63,62.9q0,26.19-18.51,44.56a60.66,60.66,0,0,1-44.47,18.42H535.76ZM716.45,331v35H625.58l-20.76-22.5v22.5h-35V240.17h59.42A46.86,46.86,0,0,1,675.62,287a46.18,46.18,0,0,1-7.73,25.8,57,57,0,0,1-20,18.24Z" transform="translate(0 1273)"/></g><g id="Layer_2" data-name="Layer 2"><path class="cls-2" d="M698.49,714.83a11,11,0,0,1,5.4,1q2.36,1.38,2.36,4.86a6.91,6.91,0,0,0,0,6.42,6.11,6.11,0,0,1-1.54,4.17,4.84,4.84,0,0,1-3.7,1.76H689.88V714.83Zm2,6.46a.91.91,0,0,0,.19-.57.84.84,0,0,0-.22-.6.67.67,0,0,0-.53-.26H695v1.72h4.92A.73.73,0,0,0,700.45,721.29Zm-.56,6.71a.67.67,0,0,0,.53-.26.84.84,0,0,0,.22-.6.87.87,0,0,0-.16-.52.7.7,0,0,0-.59-.34H695V728Z" transform="translate(0 1273)"/><path class="cls-2" d="M718.13,714.83H724L717.34,726l-.42.71v6.37h-5.07V726.7l-.41-.71-6.7-11.16h5.9l3.74,6.24Z" transform="translate(0 1273)"/><path class="cls-2" d="M734.35,728h8.78v5.07H729.28V714.83h5.07Z" transform="translate(0 1273)"/><path class="cls-2" d="M754,714.75H759v10.56a7.41,7.41,0,0,1-2.28,5.48,7.76,7.76,0,0,1-13.24-5.48V714.75h5.07v10.56a2.68,2.68,0,0,0,2.68,2.69,2.65,2.65,0,0,0,1.92-.79,2.62,2.62,0,0,0,.78-1.9Z" transform="translate(0 1273)"/><path class="cls-2" d="M775.88,719.89h-7.09a4.06,4.06,0,1,0,0,8.11h7.09v5.07h-7.09a9.12,9.12,0,1,1,0-18.24h7.09Z" transform="translate(0 1273)"/><path class="cls-2" d="M789.86,714.83l7,18.24H791l-.69-1.8h-7l-.68,1.8h-6.08l7.23-18.24Zm-1.34,11.68L786.8,722l-1.73,4.56Z" transform="translate(0 1273)"/><path class="cls-2" d="M803.33,719.89l5.91,6.15a4.31,4.31,0,0,1,.79,2.47,4.58,4.58,0,0,1-1.27,3.2,4.07,4.07,0,0,1-3.06,1.36h-8.23V728h6.78l-5.88-6.14a3.75,3.75,0,0,1-.8-2.48,4.45,4.45,0,0,1,1.26-3.19,4,4,0,0,1,3.06-1.36h7.89v5.06Z" transform="translate(0 1273)"/><path class="cls-2" d="M820.35,728h8.77v5.07H815.27V714.83h5.08Z" transform="translate(0 1273)"/><path class="cls-2" d="M829.75,714.83h5.08v18.24h-5.08Z" transform="translate(0 1273)"/><path class="cls-2" d="M849.08,714.83h6.33v18.24h-5.07v-8L845.43,733l-4.9-7.93v8h-5.07V714.83h5.7l4.27,8.24Z" transform="translate(0 1273)"/><path class="cls-2" d="M869.39,714.83l7,18.24h-5.82l-.7-1.8h-7l-.68,1.8h-6.08l7.22-18.24Zm-1.33,11.68L866.33,722l-1.72,4.56Z" transform="translate(0 1273)"/></g></svg>