<svg id="Layer_1" data-name="Layer 1" xmlns="http://www.w3.org/2000/svg" viewBox="0 0 490.8 492"><defs><style>.cls-1{fill:#fff;}</style></defs><title>res-emp-logo</title><path class="cls-1" d="M308.34,301.27l54.23,46.82L390,300.94c-18.45-6.52-34.34-12.24-50.29-17.75-17.9-6.18-17.63-6.08-16.69-24.72a116.83,116.83,0,0,0-1.53-22.85c-.89-6,.4-9.15,6.54-11.14,15.54-5,30.88-10.71,46.29-16.15,4.32-1.53,8.61-3.12,15.65-5.67l-27-47.2-56.74,47.81L400.14,108c7.43,8.77,15.76,18.59,24.59,29l9.36-6.23L407.45,96.84c5.45-5.19,10.89-10.37,17.05-16.26,61.68,65.4,84.17,142,63.31,227.62-24.18,99.2-90.23,160.28-189.52,182.34C212.85,509.52,129.82,477,80.1,425l16.59-16.38C136,445.38,182,467.21,236.43,470.74c2.95-7.77,2-12.33-7.23-12.95-7-.47-13.86-2.08-20.82-2.85-7.48-.84-10.3-3.72-8.23-11.86,3.48-13.68,3-13.92-10-18.68-25.36-9.24-48-22.73-65.54-40.24,24.12-25.2,47.76-50.09,71.79-74.59,1.64-1.67,6.71-1.6,9.31-.42a204.82,204.82,0,0,1,25.49,13.61c2.37,1.5,4.36,6.24,3.91,9.08C232.2,350,229,368,225.07,386c-1.78,8.23,1.1,11.22,8.77,11.18,11.67-.06,23.34-.18,35-.3,6-.06,8.15-2.8,7-8.95-3.52-18.34-6.33-36.82-10.17-55.09-1.41-6.74.67-8.9,6.59-11.65C284.18,315.58,295.41,308.51,308.34,301.27ZM262.67,469.88c70.28-.19,142.3-47.83,170.14-97.67-5.55-7-9.83-5.24-14.67,1.28-6,8.14-13,15.63-19.69,23.62L381.14,381.8c-4,3.08-7,5.81-10.33,7.85-17.57,10.68-34.69,22.32-53.06,31.42s-18.82,7.89-16.09,28.56c.08.61-.23,1.27-.67,3.45l-38.32,6.64Zm187.81-274c-3.71,1.65-5.77,2.72-7.94,3.48-2.52.88-5.72.8-7.55,2.37-2.49,2.15-6,5.84-5.57,8.24a224.5,224.5,0,0,1,.09,82.61c-.47,2.52,1.8,6.71,4.08,8.34,4.83,3.48,13.73,4.76,15,8.84,1.56,4.9-3,11.78-5,17.77a74,74,0,0,1-3.57,9.34c-3.61,7.3-1.16,11.1,6.32,12.6,32.24-53.81,30.35-147.13-.59-195.75l-9.08,5.3c2.76,6.67,5.33,12.43,7.54,18.34S448.25,189.19,450.48,195.84Z" transform="translate(-4.6 -4)"/><path class="cls-1" d="M249.18,4c14.06,16,27.4,30.79,40.1,46.12,1.54,1.86.3,6.9-.87,10-4.71,12.46-10.18,24.63-14.76,37.13-1.54,4.21-1.27,9.08.07,15,2.11-2.11,4.12-4.34,6.36-6.3,9.76-8.57,19.39-17.3,29.57-25.34,2-1.55,7.48-1.64,9.12-.07,8.13,7.8,15.52,16.39,23.53,25.09-2.55,2.08-4.14,3.82-6.09,4.9-37.62,20.84-51.41,55.26-53.63,95.69-.5,9.1-3.3,15.37-9.65,21.65Q178.24,321.43,84,415.48c-2.32,2.31-4.81,4.46-8.26,7.62C24.61,370.94,1.27,309.21,5,237,9.16,155.7,50.81,96.43,115.88,50.9c-1.92,2.83-3.83,5.68-5.76,8.51C86,94.6,66.91,131.73,66.83,175.74c-.07,39,15.33,71.37,44.66,96.8,18.92,16.4,41.17,25.22,65.72,16.67,24.79-8.62,34.6-30.86,38.31-54.68,5.37-34.54-1.57-67.4-21.84-96.19-6.51-9.24-16.7-15.94-25.46-23.51-3.68-3.19-8-5.63-12.85-9,8.23-8.83,15.38-17.18,23.41-24.59,1.93-1.78,7.81-1.9,10.05-.27,9.14,6.62,17.6,14.18,26.25,21.46,3.23,2.71,6.3,5.61,11.56,10.33-2.83-20-6.59-36.71-16.81-51.06-4.88-6.85-3.69-11.42,1.81-17.09C224.11,31.77,236,18.34,249.18,4Z" transform="translate(-4.6 -4)"/><path class="cls-1" d="M421.73,78.53,409.41,89,383.69,52.24l1.64-1.7Z" transform="translate(-4.6 -4)"/></svg>